<mxfile host="app.diagrams.net" modified="2022-06-03T09:54:41.807Z" agent="5.0 (Macintosh; Intel Mac OS X 10_15_7) AppleWebKit/537.36 (KHTML, like Gecko) Chrome/101.0.4951.64 Safari/537.36" etag="K5cVice0ETMp-yag7gIe" version="18.2.1" type="github">
  <diagram id="sykiuBZGCB29-2sBaeTy" name="Page-1">
    <mxGraphModel dx="3796" dy="1186" grid="1" gridSize="10" guides="1" tooltips="1" connect="1" arrows="1" fold="1" page="1" pageScale="1" pageWidth="850" pageHeight="1100" math="0" shadow="0">
      <root>
        <mxCell id="0" />
        <mxCell id="1" parent="0" />
        <mxCell id="fpoQU8l-y1JR6lcllZNJ-43" style="edgeStyle=orthogonalEdgeStyle;rounded=0;orthogonalLoop=1;jettySize=auto;html=1;exitX=1;exitY=0.5;exitDx=0;exitDy=0;exitPerimeter=0;" edge="1" parent="1" source="fpoQU8l-y1JR6lcllZNJ-1" target="fpoQU8l-y1JR6lcllZNJ-42">
          <mxGeometry relative="1" as="geometry" />
        </mxCell>
        <mxCell id="fpoQU8l-y1JR6lcllZNJ-1" value="" style="strokeWidth=2;html=1;shape=mxgraph.flowchart.database;whiteSpace=wrap;" vertex="1" parent="1">
          <mxGeometry x="-540" y="330" width="60" height="60" as="geometry" />
        </mxCell>
        <mxCell id="fpoQU8l-y1JR6lcllZNJ-3" value="Table" style="shape=table;startSize=30;container=1;collapsible=1;childLayout=tableLayout;fixedRows=1;rowLines=0;fontStyle=1;align=center;resizeLast=1;" vertex="1" parent="1">
          <mxGeometry x="210" y="323" width="180" height="160" as="geometry" />
        </mxCell>
        <mxCell id="fpoQU8l-y1JR6lcllZNJ-4" value="" style="shape=tableRow;horizontal=0;startSize=0;swimlaneHead=0;swimlaneBody=0;fillColor=none;collapsible=0;dropTarget=0;points=[[0,0.5],[1,0.5]];portConstraint=eastwest;top=0;left=0;right=0;bottom=1;" vertex="1" parent="fpoQU8l-y1JR6lcllZNJ-3">
          <mxGeometry y="30" width="180" height="30" as="geometry" />
        </mxCell>
        <mxCell id="fpoQU8l-y1JR6lcllZNJ-5" value="PK" style="shape=partialRectangle;connectable=0;fillColor=none;top=0;left=0;bottom=0;right=0;fontStyle=1;overflow=hidden;" vertex="1" parent="fpoQU8l-y1JR6lcllZNJ-4">
          <mxGeometry width="30" height="30" as="geometry">
            <mxRectangle width="30" height="30" as="alternateBounds" />
          </mxGeometry>
        </mxCell>
        <mxCell id="fpoQU8l-y1JR6lcllZNJ-6" value="DuplicateGroupID" style="shape=partialRectangle;connectable=0;fillColor=none;top=0;left=0;bottom=0;right=0;align=left;spacingLeft=6;fontStyle=5;overflow=hidden;" vertex="1" parent="fpoQU8l-y1JR6lcllZNJ-4">
          <mxGeometry x="30" width="150" height="30" as="geometry">
            <mxRectangle width="150" height="30" as="alternateBounds" />
          </mxGeometry>
        </mxCell>
        <mxCell id="fpoQU8l-y1JR6lcllZNJ-7" value="" style="shape=tableRow;horizontal=0;startSize=0;swimlaneHead=0;swimlaneBody=0;fillColor=none;collapsible=0;dropTarget=0;points=[[0,0.5],[1,0.5]];portConstraint=eastwest;top=0;left=0;right=0;bottom=0;" vertex="1" parent="fpoQU8l-y1JR6lcllZNJ-3">
          <mxGeometry y="60" width="180" height="30" as="geometry" />
        </mxCell>
        <mxCell id="fpoQU8l-y1JR6lcllZNJ-8" value="" style="shape=partialRectangle;connectable=0;fillColor=none;top=0;left=0;bottom=0;right=0;editable=1;overflow=hidden;" vertex="1" parent="fpoQU8l-y1JR6lcllZNJ-7">
          <mxGeometry width="30" height="30" as="geometry">
            <mxRectangle width="30" height="30" as="alternateBounds" />
          </mxGeometry>
        </mxCell>
        <mxCell id="fpoQU8l-y1JR6lcllZNJ-9" value="ContentÂ " style="shape=partialRectangle;connectable=0;fillColor=none;top=0;left=0;bottom=0;right=0;align=left;spacingLeft=6;overflow=hidden;" vertex="1" parent="fpoQU8l-y1JR6lcllZNJ-7">
          <mxGeometry x="30" width="150" height="30" as="geometry">
            <mxRectangle width="150" height="30" as="alternateBounds" />
          </mxGeometry>
        </mxCell>
        <mxCell id="fpoQU8l-y1JR6lcllZNJ-10" value="" style="shape=tableRow;horizontal=0;startSize=0;swimlaneHead=0;swimlaneBody=0;fillColor=none;collapsible=0;dropTarget=0;points=[[0,0.5],[1,0.5]];portConstraint=eastwest;top=0;left=0;right=0;bottom=0;" vertex="1" parent="fpoQU8l-y1JR6lcllZNJ-3">
          <mxGeometry y="90" width="180" height="30" as="geometry" />
        </mxCell>
        <mxCell id="fpoQU8l-y1JR6lcllZNJ-11" value="" style="shape=partialRectangle;connectable=0;fillColor=none;top=0;left=0;bottom=0;right=0;editable=1;overflow=hidden;" vertex="1" parent="fpoQU8l-y1JR6lcllZNJ-10">
          <mxGeometry width="30" height="30" as="geometry">
            <mxRectangle width="30" height="30" as="alternateBounds" />
          </mxGeometry>
        </mxCell>
        <mxCell id="fpoQU8l-y1JR6lcllZNJ-12" value="Article ID List" style="shape=partialRectangle;connectable=0;fillColor=none;top=0;left=0;bottom=0;right=0;align=left;spacingLeft=6;overflow=hidden;" vertex="1" parent="fpoQU8l-y1JR6lcllZNJ-10">
          <mxGeometry x="30" width="150" height="30" as="geometry">
            <mxRectangle width="150" height="30" as="alternateBounds" />
          </mxGeometry>
        </mxCell>
        <mxCell id="fpoQU8l-y1JR6lcllZNJ-13" value="" style="shape=tableRow;horizontal=0;startSize=0;swimlaneHead=0;swimlaneBody=0;fillColor=none;collapsible=0;dropTarget=0;points=[[0,0.5],[1,0.5]];portConstraint=eastwest;top=0;left=0;right=0;bottom=0;" vertex="1" parent="fpoQU8l-y1JR6lcllZNJ-3">
          <mxGeometry y="120" width="180" height="30" as="geometry" />
        </mxCell>
        <mxCell id="fpoQU8l-y1JR6lcllZNJ-14" value="" style="shape=partialRectangle;connectable=0;fillColor=none;top=0;left=0;bottom=0;right=0;editable=1;overflow=hidden;" vertex="1" parent="fpoQU8l-y1JR6lcllZNJ-13">
          <mxGeometry width="30" height="30" as="geometry">
            <mxRectangle width="30" height="30" as="alternateBounds" />
          </mxGeometry>
        </mxCell>
        <mxCell id="fpoQU8l-y1JR6lcllZNJ-15" value="other columns" style="shape=partialRectangle;connectable=0;fillColor=none;top=0;left=0;bottom=0;right=0;align=left;spacingLeft=6;overflow=hidden;" vertex="1" parent="fpoQU8l-y1JR6lcllZNJ-13">
          <mxGeometry x="30" width="150" height="30" as="geometry">
            <mxRectangle width="150" height="30" as="alternateBounds" />
          </mxGeometry>
        </mxCell>
        <mxCell id="fpoQU8l-y1JR6lcllZNJ-17" value="Table" style="shape=table;startSize=30;container=1;collapsible=1;childLayout=tableLayout;fixedRows=1;rowLines=0;fontStyle=1;align=center;resizeLast=1;" vertex="1" parent="1">
          <mxGeometry x="560" y="740" width="180" height="160" as="geometry" />
        </mxCell>
        <mxCell id="fpoQU8l-y1JR6lcllZNJ-18" value="" style="shape=tableRow;horizontal=0;startSize=0;swimlaneHead=0;swimlaneBody=0;fillColor=none;collapsible=0;dropTarget=0;points=[[0,0.5],[1,0.5]];portConstraint=eastwest;top=0;left=0;right=0;bottom=1;" vertex="1" parent="fpoQU8l-y1JR6lcllZNJ-17">
          <mxGeometry y="30" width="180" height="30" as="geometry" />
        </mxCell>
        <mxCell id="fpoQU8l-y1JR6lcllZNJ-19" value="PK" style="shape=partialRectangle;connectable=0;fillColor=none;top=0;left=0;bottom=0;right=0;fontStyle=1;overflow=hidden;" vertex="1" parent="fpoQU8l-y1JR6lcllZNJ-18">
          <mxGeometry width="30" height="30" as="geometry">
            <mxRectangle width="30" height="30" as="alternateBounds" />
          </mxGeometry>
        </mxCell>
        <mxCell id="fpoQU8l-y1JR6lcllZNJ-20" value="UniqueID" style="shape=partialRectangle;connectable=0;fillColor=none;top=0;left=0;bottom=0;right=0;align=left;spacingLeft=6;fontStyle=5;overflow=hidden;" vertex="1" parent="fpoQU8l-y1JR6lcllZNJ-18">
          <mxGeometry x="30" width="150" height="30" as="geometry">
            <mxRectangle width="150" height="30" as="alternateBounds" />
          </mxGeometry>
        </mxCell>
        <mxCell id="fpoQU8l-y1JR6lcllZNJ-21" value="" style="shape=tableRow;horizontal=0;startSize=0;swimlaneHead=0;swimlaneBody=0;fillColor=none;collapsible=0;dropTarget=0;points=[[0,0.5],[1,0.5]];portConstraint=eastwest;top=0;left=0;right=0;bottom=0;" vertex="1" parent="fpoQU8l-y1JR6lcllZNJ-17">
          <mxGeometry y="60" width="180" height="30" as="geometry" />
        </mxCell>
        <mxCell id="fpoQU8l-y1JR6lcllZNJ-22" value="" style="shape=partialRectangle;connectable=0;fillColor=none;top=0;left=0;bottom=0;right=0;editable=1;overflow=hidden;" vertex="1" parent="fpoQU8l-y1JR6lcllZNJ-21">
          <mxGeometry width="30" height="30" as="geometry">
            <mxRectangle width="30" height="30" as="alternateBounds" />
          </mxGeometry>
        </mxCell>
        <mxCell id="fpoQU8l-y1JR6lcllZNJ-23" value="Row 1" style="shape=partialRectangle;connectable=0;fillColor=none;top=0;left=0;bottom=0;right=0;align=left;spacingLeft=6;overflow=hidden;" vertex="1" parent="fpoQU8l-y1JR6lcllZNJ-21">
          <mxGeometry x="30" width="150" height="30" as="geometry">
            <mxRectangle width="150" height="30" as="alternateBounds" />
          </mxGeometry>
        </mxCell>
        <mxCell id="fpoQU8l-y1JR6lcllZNJ-24" value="" style="shape=tableRow;horizontal=0;startSize=0;swimlaneHead=0;swimlaneBody=0;fillColor=none;collapsible=0;dropTarget=0;points=[[0,0.5],[1,0.5]];portConstraint=eastwest;top=0;left=0;right=0;bottom=0;" vertex="1" parent="fpoQU8l-y1JR6lcllZNJ-17">
          <mxGeometry y="90" width="180" height="30" as="geometry" />
        </mxCell>
        <mxCell id="fpoQU8l-y1JR6lcllZNJ-25" value="" style="shape=partialRectangle;connectable=0;fillColor=none;top=0;left=0;bottom=0;right=0;editable=1;overflow=hidden;" vertex="1" parent="fpoQU8l-y1JR6lcllZNJ-24">
          <mxGeometry width="30" height="30" as="geometry">
            <mxRectangle width="30" height="30" as="alternateBounds" />
          </mxGeometry>
        </mxCell>
        <mxCell id="fpoQU8l-y1JR6lcllZNJ-26" value="Row 2" style="shape=partialRectangle;connectable=0;fillColor=none;top=0;left=0;bottom=0;right=0;align=left;spacingLeft=6;overflow=hidden;" vertex="1" parent="fpoQU8l-y1JR6lcllZNJ-24">
          <mxGeometry x="30" width="150" height="30" as="geometry">
            <mxRectangle width="150" height="30" as="alternateBounds" />
          </mxGeometry>
        </mxCell>
        <mxCell id="fpoQU8l-y1JR6lcllZNJ-27" value="" style="shape=tableRow;horizontal=0;startSize=0;swimlaneHead=0;swimlaneBody=0;fillColor=none;collapsible=0;dropTarget=0;points=[[0,0.5],[1,0.5]];portConstraint=eastwest;top=0;left=0;right=0;bottom=0;" vertex="1" parent="fpoQU8l-y1JR6lcllZNJ-17">
          <mxGeometry y="120" width="180" height="30" as="geometry" />
        </mxCell>
        <mxCell id="fpoQU8l-y1JR6lcllZNJ-28" value="" style="shape=partialRectangle;connectable=0;fillColor=none;top=0;left=0;bottom=0;right=0;editable=1;overflow=hidden;" vertex="1" parent="fpoQU8l-y1JR6lcllZNJ-27">
          <mxGeometry width="30" height="30" as="geometry">
            <mxRectangle width="30" height="30" as="alternateBounds" />
          </mxGeometry>
        </mxCell>
        <mxCell id="fpoQU8l-y1JR6lcllZNJ-29" value="Row 3" style="shape=partialRectangle;connectable=0;fillColor=none;top=0;left=0;bottom=0;right=0;align=left;spacingLeft=6;overflow=hidden;" vertex="1" parent="fpoQU8l-y1JR6lcllZNJ-27">
          <mxGeometry x="30" width="150" height="30" as="geometry">
            <mxRectangle width="150" height="30" as="alternateBounds" />
          </mxGeometry>
        </mxCell>
        <mxCell id="fpoQU8l-y1JR6lcllZNJ-36" style="edgeStyle=orthogonalEdgeStyle;rounded=0;orthogonalLoop=1;jettySize=auto;html=1;exitX=1;exitY=0.5;exitDx=0;exitDy=0;entryX=0;entryY=0.5;entryDx=0;entryDy=0;" edge="1" parent="1" source="fpoQU8l-y1JR6lcllZNJ-31" target="fpoQU8l-y1JR6lcllZNJ-32">
          <mxGeometry relative="1" as="geometry" />
        </mxCell>
        <mxCell id="fpoQU8l-y1JR6lcllZNJ-37" style="edgeStyle=orthogonalEdgeStyle;rounded=0;orthogonalLoop=1;jettySize=auto;html=1;exitX=1;exitY=0.5;exitDx=0;exitDy=0;entryX=0;entryY=0.5;entryDx=0;entryDy=0;" edge="1" parent="1" source="fpoQU8l-y1JR6lcllZNJ-31" target="fpoQU8l-y1JR6lcllZNJ-33">
          <mxGeometry relative="1" as="geometry" />
        </mxCell>
        <mxCell id="fpoQU8l-y1JR6lcllZNJ-38" style="edgeStyle=orthogonalEdgeStyle;rounded=0;orthogonalLoop=1;jettySize=auto;html=1;exitX=1;exitY=0.5;exitDx=0;exitDy=0;entryX=0;entryY=0.5;entryDx=0;entryDy=0;" edge="1" parent="1" source="fpoQU8l-y1JR6lcllZNJ-31" target="fpoQU8l-y1JR6lcllZNJ-34">
          <mxGeometry relative="1" as="geometry" />
        </mxCell>
        <mxCell id="fpoQU8l-y1JR6lcllZNJ-31" value="" style="shape=image;verticalLabelPosition=bottom;labelBackgroundColor=#ffffff;verticalAlign=top;imageAspect=0;image=data:image/jpeg,/9j/4AAQSkZJRgABAQAAAQABAAD/2wCEAAkGBxQTEhUTExMVFhUWGCAYGRgYGCAaIRsaICAfGiIeIh0eICggISAlIRofITEjJSorLi4uIiAzODMtNygtMCsBCgoKBQUFDgUFDisZExkrKysrKysrKysrKysrKysrKysrKysrKysrKysrKysrKysrKysrKysrKysrKysrKysrK//AABEIAPsAyAMBIgACEQEDEQH/xAAbAAACAwEBAQAAAAAAAAAAAAAEBQADBgIBB//EAD0QAAICAQIFAgUCBQIEBQUAAAECAxESBCEABRMiMUFRBhQjMmFCcRUzUoGRB2IWQ6GxJFNygsE0Y3Oj8P/EABQBAQAAAAAAAAAAAAAAAAAAAAD/xAAUEQEAAAAAAAAAAAAAAAAAAAAA/9oADAMBAAIRAxEAPwD7jxOML/qHzN45dHFG865tJJINOLdoY0tgB72Vr+9e3HHMhNCmjjTUagyarWox6rgtHFgZJI7AoqqoR+5u+A3vE4x8X+oOjZpADJiiB1YJYkDP0gEAJa2c0oZVyG62u/Feq+M5DNo4YtJOGnlkWRZUVWRItnI+oFO5UhgWUi6s0OA2nE4yKfHunIciLU9r9IXFWc3UaIQoSQDJa3RIAUgkjeqtR/qDAoT6GpZ26wZFVCYzp/5gc54ijQsMQchvwGz4nGKl+MYuqk3WlXTjSLqGToghusyrFTX1MyclCKCDvZG16HkvNfmEZjDNCyOUZJlCtYANjFmVlIYbqSPPtwDTicYPkYm5j8zO2omhRZpIdMsT4hRH2dVwP5jFrOL2oobcM/8AiuKKRdOwmlwePTyagKuAncDFW7gxZrF4KVUsLI3oNTxOMOP9StOVz+X1eJjlkU9Ne5YWxko50K82aFbXl28Wa/8A1Cgio9DUuh0yasuiLSwuaBNuDfkkVex88BtOJxlx8ZQmTpqkxPzQ0gIUUZCockd32qhyJNbXQJ4V6D4/GE0moiZF+YeLTAYAyqlhtzLiCpjcszFErGiSeA3nE4yOl+PIJHgjSHVM88cUygRXjFK2ObENQVD9x8D0vjz/AFO5lJDo1EDuk008UMZSssmcWBexJUMKPAa/icfNOdSTJy/UTxS60PMyQQxTvi6SifpZBlogMaNG7A9Q1caGT4whSZdOqTS/WXS9VQpXr1ZQkuGJVbdiAQKIvLt4DVcTj5v8SfGi6jQa/wCWTUI8REKSZCO5Wk6QxZHyVgwyKticSpIpuDYv9QdNFpxmJupG76cxyNH1C8KqXZnaTp0AyksX3JA3JrgN3xOMvo/jOGXUxaVIp85IlmJKgdNXUuMwWzGwosFKhmVSbNcajgJxOJxOAnE4nE4DP82+GVn1C6n5jURSJGY16bIAFJybZkbdqAJ9gKriiP4QhU6d2lnZtM0rhndWLmX7+pa77WoqqUkcafjI/GmrZ0+RRXZ9QrCXpAOY9P8AazU1DJwcFv1YnuwPAeaP4F0og6SSTmMlWjIl/l4sJEKUKJBApmDGtrI4Yj4dTqwTGWcyQBlDF7zDkMQ+3uo2Wvbxxk+RfEksXI9K8KodQGTRrHJZHUEnQAOJB2ADfkD88V67/UDUx6eVsdP1Y9VNESMiDBDsZenmHIDMqsQSQLYKw24DVj4Sg+XTT3J2THULJkOosxdnL5AVduw8VRrikfBGlAYVJTQywtbkkiZspXJO5kY/qvxsBXCnV/G0qTvEflxWrh0y2SDTIJpnNsNlQ0DQFje7oBP8b6sNFEqwFyFkZ5Ppq8cszJHQaRSlxKGv6hyYKFJ4DRS/A2mZXUtNTxRRH6lECE5RsCBYZTv7fjh9y/R9JAnUkkPktI2TE/8AQD9gAPxxjZPi7VY6yRY9N09PK+njt2BknBQKoBpSO5ge4Wwx2rIufg74iGqgiMjx9eRGk6ago3TDmPIxuSy7ijuwyumYUSFP/D+jXUsvWZWlfrHSicqrPuS/SBBN0SR9pIsjbjv+AaOTVOwkuQSCdoRKCqzBQglMfkMBj52ujV78Y34pmJ5nHrIUEssOqXQoBv3HTySbkfaoefuPoEY+lcU/DPMV0UWr1KGNpNVzAaRJpGARioozyEEbFurKVBFk0KsHgNtH8C6VYxEOpgulbSAZeI3OTHx95IFn/pwJB8Do00zahy8JWKOOMOaMUSjtl2GVvbV4/sSOFsPxzONMNY7aZ9OmsMErRo5JhyEQlUB2rutsaa1Kgb7l/r5upy4rr2XTtqU6LFbGBltFG5NMAwB3Iu9634AXl/wzo5JxqNPqXYrqX1OMcyuglYFHtaPmzYux4BAscWr8BaYRxxh5voyPJE+YyTqEl1BxrE2fIJ9bvfjNaDnUmk03MJmTTvqtKYtP1owRHOP+UCqmlkHWpgKAJFmhsRqfjzUxs8BjheU6hoY5Y7MXbCJm2Z1tlJCVmou9xjuG00XI4opjOpcuYkht3L9iFiN2tiSWJJJJPA/PtBBLNpTNMUeOXqQpmq5uBX2sCWoEih/UfxWR0vx9qZNRDCE06UdOJiXVg5lTqN0m6oNBftxWTM3uACT5yrnrcx1+hYvCI1jl1aQobdduigkbIguRIWxCrjTDuq+A1nxXDpJFjTVahYcJFmT6wiOSHY7ncAn/ALcL9D8I6N5BqoZpXHXedcNQWjEjWslAGqJJv1BsWBY4T/Fepd+bIsbadTptKWznParSviwoEdwjTOzY8A1lfHXPfitoBXL/AJYQJopNZ3xPWz0oADLtIxatvIJ3G3APdN8CaRBsJCerFKWZySxhvphj+pVv13O1k1xJPgjSs2QMyuJZJckmZWDTbyAEGwGoH3HkEHhbr/ivVHUR6eCOLNo4W3V5Aerlk+SMFVIsCxDbvsAVsErk55MuokbTJpBNqOY/KFum1vFFGSXapLySmW/BrwLvgNbD8KaddSuq+o0ifZm5YISnSJF77rsQSR5NXvxoOPlSf6lah4IemkBmeKSZnbsiwSUxL98i45AZMS5wFbNkBw00vxtPJqZFSOBYY2njJkemuFT3A5ZEFlPaIzSjIsLrgPoBPEPHzgc6m1KctOqh0tamVJ4xbkokcImMh3HcHsAbinQGz5r+H/jfVyYGZdM3U0U2rSNbhbsfGO2eRlAdd9/tom9jwH0zicY/4I51qtXnJL0uiFXFlheMs7BWYDqSE4x7rZUZEgiqozgNhwMNHHmZMEzIxL4jIr7E+a2G34HBPE4ADT8qgQYpDEoDBwFRQMhsGoD7gNr88dHl0JomKM0+Y7F+8/q8fd+fPBvE4AKblkLli8MbFqyLIpLV4uxvXpfji2XSxsyuyKXX7WKglb9j5H9uCOJwAh0ERRozGhRiSy4iiSbJIqiSd+K4+WxrL1gveI+kvsqXeKjwASAT70vsOD+JwAvyib9i7kse0bsQQT+5BIv8njheXRBSgijCE5FQgokVRqqvYb/gce6bmEUhYRyxuV+4K4JXcjcA7bqRv6g+3Hmq5nDEyrLNGjP9odwpb9gTv4PjgA9VyCKSSNyXVYyWMSnGORyyuHdAO5lZAwPoffhlqNOkgxdFdfZgCP8AB4q1uvihAMsqRhjQLsFBIBYgEn2BP7A8dajVxohkd0VBRLswCgHYbnbexwC/mPw5BLFFDiI4opUlEcYVVJQ5BStVjdEgV44NPK4SgiMMZjU2EKLiD+Fqh545/isF11orPpmvvj7+4I/fifxaDb68W4yH1F3GOd+fGPdftvwBHyyZB8FzAoNQsD2vzXFMXLokIZIo1IuiqAEWbNED1O59+OP4xp9/rw7Gj9RdjdV59yBx1FzOFmwWaNmNdodSdxkNgb3AJ/bfgOdVymGSy0UZZvLFFJ8VdkH09+LxpI6rBaxwrEfb/T48fjxx6NShcoGXMAMVsWAfBI8gGvPBHAZGX4D0zawawl8xIsgUCNQGRVRacIJcaQdmeJN7bkcaUaRAcgig2WsKLs+TfuffgnicAE3LYTjcMZwNpaL2nzY22P5HEblsRLsYo7kGMhwW3XxTGu4V6Hg3icAK2hiOFxoen9lqDhtXbtttttxRzTlMU8LwstK6GO1oEKfQGtv+3DHicAk+G/h2LRq4ismVs3YhRk1BbxRVQbD9Ki9yd+Jw74nATiceHjLf8VnpdU6aQDB5PJ3CqG2OP5rI0o9+A1XE4Rabn1ylJFSNbYBupdkSLEBWI+5m234Ef4uTp9VUtR1SylqcLHRBC0bLoyuqkj7lBq9g1HE4y+n+KC0gQxoo6zw5GWqwL5NRQbfT2o1dixR49X4oJO0IKGXpK4diD929dPc9t0uVC7IrcNPxOMjH8Zr0hM6IFbokYyZ0siiR3btACxoS5O9geljhvzvnAgh6yqJBmqUGNklsKXFWLNf6QPfgE/N+TaGA5yI46suTEMzZMGaXusk1kzGl3IJX7WKm/X810cpR3LkwkyLSutHAgmtsuyRhW/3eNxx1P8TorBJIyDmsUncKVmBqsqzWwQfB8EKb4P5lzcRNFsrpIGNq1sQqFxggHfYFbEeR5vgFXM59FPFEJ1dohmUJLG8PoEkq2RJEhIuzRvY8e6/mGn6U2mnSfpLaNkS5YABiAyOXrEqd6JyA82OGHJviBJ4YZcZAZY0ehFIyjJQ1BwmJAur4WaX40U49SFgGEZtWVsDIcem4JBEiEqHVciMl9+AqEOhikjAEiFEUxsGZgFZwVVe40MpB2jYDbZaHHGp0+gEKDpyGB3aipZQHwssLIZTirPcdbhz9zdzpefqdKmqVDi7otMVBAaQRWTZG15Vf42PAv/F8VA9OS2CkC4rOTiNf+ZW5Pm69PNDgAoYdBM7GNpGkd+tiCylpEKTggGgSCEI9PT+rjrlmo0EJWZMoz0OmBTP9JO8brkD99jezkR7gNuW/EEc0nTUGypcG1rHJlHrdnEmgCBtZF8Bf8ZQb9ktbi6SiRkRQzuiFJuqoiyLHAWafl+k1UjzqTI+SZEs2xjzwGDbBQZHYUKJN8aCJKAFk0Ksmyf3PvxnG+LoiyKitbyrH30mxZUJHkkgvQWrNE+O7i/UfFMKSSRsGuMkMbSrEYmI++7xI8gbkfk8BoOJwg0/xTE4UokjBiq2AuzMpYKe7Y7Y/+rbjnl3xLHMJGjU4xwrMMu0kMZVFgjtH0SQd9j4FcBoeJwhHxEhieVFvpyLGwJrdmVSQQCSBltsMq/N8eL8VQnbuu1H6TeSl9iGo0os0fwLPAP8AicZ+H4phau2QWypuoFM3oe67Aon2scE8255HAFJBbNGZCKxbEBiLvzjb7A9qufTgG/E4U6PnSSEgK4p2QErako/TJDLYHdsA1E+aricAPLzz64gWPfqBGLMAKKsxIG5J7aANXd8LtZzCKOUxNpIjHGWVQqqzUwgOyYgDJpiCo843wVzPns8LTH5ctHGHbLvFhY1cVSEG2JW72o+eDNPzOR9IdQIwXxZljUsbIul3QMCao9po+/ngAJ9fEsEeoGjyDk5BUViv3HI4g2CV9LO4/NcpzgM4jTSAS5KgyoBWKM1k1dL06291rztY/PNSCo+TZrL2VLV2qpTcoB3sSLOwq/2r/jGrtvoErZKkI42Cx7UVvuLMfcUR6AkLm5krRSyLp1uOdYiGGxGaK0lhTsFct49Ddb15o+diSVYvliuTHyBYOIbIrXpeDG9mDDerJXKeZaiSTGXT9NcWOVn7g5UAAqNioy3II22IN8D80n1SySdOBDSnCUCyRiCFI82X2rxjv54CrUc6wd1GkZschaj7sVuh2+SbAXc1Z8VcTnLi1XR7Z0MSazZRIW3QbZSeRuakPkUeX5nrMWqAg712k7iNCABXgyFxv6DY+OG8mql+W6gj+rj9lH7ro7bEj1/I4AblHNus7I8WDBVZSQafYZEWo+00N9/B2BF06L4iZ5FQ6Z0yZltrFAY01FR5z8elN7cBNz7WemnUNkqhCP1mLqFMg9bt2Z0AtXTXQuGt142EIf7+56HhFw2WvLFr/atrHAdcx+IpY5ZI00kjhCKcZ0w6byGqjbcFAlepdd/TjyT4jn7gNG9gLvUhBusqqK+0n23APr28MdXqdSNKrxxK2oKpaMaAJrP9X6bJrL08nhWmq5hTAwKRb4s2BJHVbDtWRVP08fUH1O/bwDXmOrlEIlWJgwdQY2GZwMiqzVGWuktwBZ/F7cJtd8RakJIE0j5gSBThIwzWISL2hBkpkuPY70KO/DrWvqfl2KJGNRfaobNayr7mCeV38bH+qt1OsbmLLIqqo7ZArDG8qqMi32HkkkXeO1E0BnKebySTPE0Y7MizglaGbKgMZFgsqhvNEEEeQOKuda2SKb6WmLErEGlwZwVaYKyYqP0qzvZO13RF8GaqeYaWRipEwVgAi5G7IUhVJ8ij524XztzCyVVNhIANqJ7MCe+/Oe+17WF88BV/H9TsDpG3AOWEh3xZrK9P0KhayvuXjmf4g1BRsdE2RV6JWRhYiEiEjpgkMxwI9DtfGh5W8piTrKFlxGdVRahZFE7Xfk8K+fQ6szRtpywQDvAKUfqxN4b16azL7Wy/uoTS85cyonyjqruylyCKCjJXIw8N6AkEWNvNXc11TRSRhIQyuCGIjZiD1IxviCAMXkbf2v0N9RPqjppc1VZ6fpha812/qIu/z/fgSKTmB/TEO8/cABhblftdiTiqA7DeQmu2uAF0/PpCFB5e4DvHYAahkMizZRLutKP/AFGtqvhpzeb5cIYtOJLYghUO2MbyDdVNWyKoJHlgPJHASy6845IoHaWwC3tJHYsyEUUz9PTY+OK5JuZ9NyqQ54LiMRRe+6z1dgPTzYone14Bu816czdDJ1RnEVblgLxFgbkiga9tuESc8nWOvkyQgcACORQyqrYhVwJUNQUWD4bt3W3vO5NSAvyyoxs5Ze1bfqHr+/A3Jp9U0n1wqqsYyAWrkJ/SbIK0Adid2r04AflnOjLqDp+ikYVS7EswOQZRspjWwbVrJGxXbfj3ghVnGoZnvolqUdtf8rEnfL7s6/6gcTgK9TLrRK4RVMfcVLKp/THio+qp89W8huaFqN+Kln5gfMce24oAX9I7H6p26pHj0Hne+O9XotYZXKahVQk4Ia2BjxH/AC72e38n0Hgcc6flmrtS2ptgyliG2IARWGGNU2GW1UWaq9Qv5nqNWsKNEilwpMgK34XalDk3e9KWuqv14Fi1PMDj9OLEkE7Uccj5HU2bGrHgb0Se3jrTaDWArlqwxXHLZQGIYlthHsGWl2O1He9+OYeU63EZakF6rLehTMQ2FAMaevS8FvzsHfJ31/V+ui9Mklja7di7LTE455VYujZrwA9Jrdaxn6RjkCTSISaONM1IBkvhOidz5MtmwtsIuW6nqAvOGRWVgtmxWxFgDKwT5/HBXNNBIxDQuI2Ae/IBLADIgbEivJurPAVc0i1JaPpPsFp8QoGXUiOVMbrASCgfWvY8ecvbWGOXrKivgOmEANPjvuWIPdXmvXyKPAkPKtXkrNqw2PTuhV4qBIKFAZ7He8bNeeGeg0Uq6cxzS9SQhhn9uxuvFeAfIrgFQj16oQpBIUVngSzVHdkGhuZPxsPfc1YdUYGUsRKJsgQV3iEofEdtC47TcX+3nhfN8O6lkKHVEkoUDWwqxML7SNwJEr/8d+TwXFyzU5jLVkjK8AKOAJ2vyaBFt6nz6cBT0uYhhTR4geGIIukAJpcqvqEgG9ko+RwVqoNWYYSrqJle38BWGLqAwptgWRiFr7TRG3HXJeWTxFepqDIixhMSDuQEAaySfKO25JPUIJpV4r1XK5TM5j1RjyZJCu7EABU2BbEAhD+mrZibIFB26z/LVJKiS2TnYXsD2AWqgxSgWC0CTQ4Xa/ST2QdcqGiayxIDlVQ1+4ZQPdqBJA4K1umw0xi1M7EOGVpVXdQzqFrLKscgMmuvO1bB8w5fpJC8k2qWysgJDooCOoy//UqrfjbLYm+A6h0eqcs/zOK9YqVzvYTWaIJosgEQXYiydiSOO9JynVDDHV3GGi7byGCCnW6yOe5st7exuzWaXSx6R2aW4WdZg4xfePBlCiiGrpLtRJo+vALcm0Za/nSGAYdskamgiqdwuQKonkGwGc/q4DRQaeYaiR2kBhZQFSt1IC73+Tkf7j24R6flmswDJrVYWrZElgVVRe/imbJr32IHgDi2HRaaEEHUMV1caxozMpWguK4EjG2DChvf54C/h2hZ8fmmIJiNZJgWGSKoOGOTCwVG9AeKHAFfwHUgMYtTgWULkGLWA5fK2B7mU43vXpdb+S8t1TF411oDsGoZWVXqBrAABFIVT2F36798n5ZpWdHh1JlICyBQ6EFVVo1NKAAu97ULVfQAcE6r4WjeRpM3UtnsoQUZAgcg4XZEYFkny39g4/g2pDWs4FlmY21nJg1C7xC77DY0BVE8d8rjeMtLPqI3QKQXD1QsMLOwHk736ji7lfw8kEgkWSRiEMfdjupxq6UXWIA9t/fjhPhmMRTxB3rUIEkNJZpOnd4bnAAUbG2wFngAtDyjWGJc9QyuUW1LXTduQJF3dMbHjIAbAcVj4Y1IJK6rH+ZTAEEdSVZTV2FsLjQ2HkeSOCv+EIcic5aJQ42oH09kqk2AFihtRPBHMPheCaVpZAzF8bBIIGIx2BBoFSyED0d6osTwHnL+VTJLk85dDl2Esd8kZTudsQrDb3/HE4s5X8NwwP1FssAQC+LEAkse7HL1Prvdmzvx5wCjW8iGrZpF1IXrLspUllDQuuO0g8CfKgB6ebJJsfwyVNpKEtixCqwsFrANSX2qaFVRVT4GJU6TTaMx5SagRNjGZQ2CDIQxPuWW3TCNSdytBwfBAZaSHTaGQj5jHJQXD40QXkxdmCj1Yrkx3pAT7h7F8NOHVzqMypUrkjEgKIxV9S9wjH2ycmvIJPM+RSSyOw1LorqBgMu2q3BVx7H0/UeAeb8h0ZXU6h3avMpSmwwIc0oU0fuJ2v6j/irOTPpQsyJOx6rEMZAFtsniIXJQpIaNhQvwDXdZAnS8jZV1IM9tPvmAQy+QCSXN0CBtjsAOKpPhyQ+NU4G1AFxVIyeepfl8x7FV81fC4ck0QjjkErzRuyorIqTBsXaQLaRm1yBG/sBd8ewcr0I6ZXVi2MRUmSO3IYSoKZdy5x/NBQKAFAZF8LU7ONQ4LlWbG1yxVUFkPkaCCiTYN3Y245bkNlq1rjCPBwGbYnvyI6naQpsePQ7gVwC/JeXiNYvmhiVjRQrxk4iTFSMVsBntWI2O9+NmfKY9JGs3S1SMJj3EPGaZsqoqBZNndrJrgK3+G2ZWrVyBXB8M4G7IwoiWwAEI2IPcd/TgrnXJldnmMxiHTCM47SFXMk55Cvvy/DKh3quFeh+H9A7Ksc3UtbCgoyFFmExFBcazIBryP88Mn5TBBpjpWMhTUMY7+824rzX4vJr33PAXTclHy5hEzLbF2ezfm9u7YDbYbbeNzwu1Hw6CCo1bh5FYIb33TCxvuaYv7ZktW9ccycm0XVttSBIGfy8V3ksz7Y+RjufOJIO1UJoOW6Mdz6tSDLmlhEYEM6KCWBJFkgeLNkfdwGiRUkxSy6sC4YSFvLBlIYEEUVse1CuFvNOVaaIoo0jP1MlGD4121ju4NsoPj1XcjY8dQzxaeKJoGWSJVCIclAoyCMdyrVLl5r03s8Uz/EBkRW+TfIAtH1Fsq4RGFrVhh1BYG9LJv27hfpNTo9SiQYv324Ql7BkVnJzB2yWRt8qIJA9uBZZuX/UUxyDC8hUlGi2n23o/Yyj2C+grjiPnCRdyaEAhXK4IFrBcasCzmEGOIvAbjtrgyKWJ4p5Do41eMnYxhs6LbglRdsGI9wQdstg81PMNK3Ri6cjopAQgPjkGVALvuGZCm7AIF+RwPo9Ty8YIEkUlowq/VItsytbkFfuyPj+rxsXp5omjeT5NAyOqYlRvYjpgcboWo8bFPxsPp+ZxlkA0IU3GQSlY5KXB2TYrdbfqNWLvgDIl0sGoSNUZJCFjUgtuAuwJujQAG9+B7cWy/E0SzNA4YSCQRqKvMlVaxXoOot34vhZped5dKR9Ceo3St8NwXUWR2lgFOxvfHf0I4v1PMl6ME7aNTJqGFoazBEbyL5Sy+KlQDVFqsCzwBA+LoKXaTJiiqoQ2zOrOAPfZG8ex4L5lz2KBsHD3Q8C/IkIHn/7Tf9OMv86jqgk0CF4wXpLjtkjWQMqY5YnqFRdgMGUnaybqufFkMjaEyMFBClTe9WgJQ3V9xOI3XzvQMoPiiGRkWMO2blLK0BRClrPkZELt+fbizXfEsMUhjbIsrYnEA12dQnz4C7n/AALPBsGnjcK/SUb3ulEMNr3AN7efwOLpNKjWSim/NqDfp/2J/wAngKG5rGNQNMSeoY+oPFY2R73ex9PQ8TgvpLeVC/et/wDP9zxOAxYk0SohfqGVY0d0VXOYSONiKIxqkjJxIvAAk7gu2fS6p8cmZ8LxuSO17W3G1leotg7rmLrLhOnMY+1JNNG9rHExNFjG6BrII+0F2Wr37vzwdDzONYI9TDp1RpZBHTFENWRuRfouy+bxBreg85fzXQIrrE20lu4wkOWTiMmiv9bBT7b3VGuvlNEIFmSNjGJEK9MOCXBSFTiKJrBB+w9bNr5OZwIlpoUy6bhaVAvbGHKmrYKQ1eP/AItrzjXqnShMMbwyrvZGI+pEgFViRUjP5GycBXptTpJFh01yIUOMaZSIwMaj9YO4xYd2RDe5PAmri0Ec6ocoypFhcgrMqDGM1uaRw9LtRJbj3Q8701oy6Qo7FcaWMEZrdkhtqAUG/UqBe3FnM+ZwRzy9TSh2WgHVVJYVFsS1UbkAFmjQ34CnR/IKAkayqpwA/nDuDNOAAe7JTm7EDbuDeCOCNPotC0KTxhpIwy4EPI1HthBAJvwAP2v3N0Sc2gLY/KKG+4F1TE3MysbW+7LqP73uavjmD4hhMbRnS/TsUtLiLKkBgTQKk23nCgfXYD+XxaTpfMRGQRxqDeUy9oWMi1Y5EYImxBsX/Ubr5lzrSSop+rIoIcGISLR6LTg5LjZw3oE7stj25GtjiigRNPEqTxo7IKVVBMMVUBuAr0NvCAbcVcz12jgd4n0qkoqnaNN/AFD8Bq/zwHMWk5aXWMIciWAH1askRtZ+2mJxsmmJYb2eL3j0cM5QpKrjFzJchBLF33bIlvtZiTsAACdgOCQmlGrGn+WQOE6ofBavJTV+crVW/wDZfoOF786hJyl0gMlBmICtRRii2Wo9tncigSR5O4H8nj07iNYUPRMeSq6MPLFrqQZedwT+K4v5zHqDJEYZHVCSrhEjarBIdi++IIUYrv3H+yvStJLGy6cJp3AaOMAYqqxzyJYGJrJEuq9dj68N9FpZiky6iSw7MFwaikZFUGCoQRvv5G2+1kBOT6nWlo1miUJj3uayvBT4VyLDkqaFGiQFFWJo5uYBu5GYZr/MWI1HbXWDoQ9AeQRutfq4Km5TN1M4ZiFLq4uRm7TQZcSCuJonb39K3IGi1XyvT6w69/zDW4ysj7ABa2t4mr9a3BdodfzHtEmnUCosmpSftPVBAlAsNVEbUTseCeb6nWBg2miyUxXi4XaTFyooupvLAN3UB4G5Kjx8p1YLINUAO9sQ24Lys4NlSRQNCu3bGq8WtyjVjLDU4jHFQWLDLKQlzak33RmrrsK+GJ4DmbWcxpsIYrGwy2vwoahIaFlnIskKlDIt23RT6w9XqQx5KhaA4iupgpo/VJNs7L+nZDv3DiluVavf/wAR6EA5GwCI63w9CjtdG7AO18G83000rfQnEdIyML8MynFqo7rYYe/+OAX/ADnMDv8ALx3bCyAO0MVArqnyo6nn1VK3LLek+vMepyRA4iBgKqO6QpZBBlI2faiQNvuN7Vy6bVdQD5tFY3SZBvLAghSttSLIK9fPpt4OV6lvGqtkNEl7q42FbKKa3Q3sa38ncPOrzIBgFjOKviWVSXYXhdSqBlSknbuLCgAGPOpn5iRiI1o9QFlwUgYAIVuUgNmSTd7Dx7maLlmoWVXkmDop8WSfsZD/AJJQ/upPk8C805RM7SL8yEWYuqrmw+6NwAKIOQID7G6UjgLuSy6sSss/2DI2y91mVwgDKcCOmU+3dcTluwPE4M5XoJkZjJqGcFmYJQoA1QsjIBfA338nc8e8ArWfWhMYURoxFaEAZWEoJ3OBlmDuQBRX2PBPLZdZ1yJVJi3FkIB90xBXF8vtESnIG7B2puBtPBqmZSk6LEWBCZAMRuWH8tvJ3rewDuL290nLteoQNqEpelYDeQuOYsxEnLfe78Hts8AfzV9YJaiCGIqN67lYZFvLUbAULtsx3scA6fUcwsB4x4QMwVP6pciB1NjiItzYBOyncCvTcl1gEYeUHpqAfrN3MFiWz9OzYSQ7+r/3DXTabUjTOjShpyrBX2rKqDfZt3d1U1XXdW4XcjecwL8wAJgKNAAE+9Bmr9r4G5DLqycdSigBF7hQJfFcjsxG7F/QUAvm9lUnJ9cTk0y5CqImarWORAcOlX3srkb3uN6ANqcs5gLPXTIg/q2LYRIDRi8WkjUK3Yb+wW6nVa9JpAkavD1VxLAAiLAFqxa27wRuoIsfcPAem5vr2jSQQqcvuXp7ChKSB9WyxKxrluBl4NHh3rdPqWhjWOVVlFdRiLDdhBrt9HIeqFhSvbdivQabVCCVZZFaUj6bBvB6ajciNf8AmZEHE7EftwF2vnmMUckKMGJVmRgAcSDam2AUgkWRZFGgeLuUvKYgZlCyW1gCr3NGsmokUayPCVuW8wIYfNKuxCsKYi5LsgxiyIjQ3AyAsHyWGp0U7aURmS5TjmwYpfeGdVYKSBjkg2uq3vfgFSarmhjQtFEJMFZgoAGZFlCGlOwJxJDfpyBo48dSarmBY1FVMQtYBWA6O5t2NG5hYo0Bt4uPy3mPpqEvu3BqvpsoIBiINyMJKP24hbYbnyXlmvyzWdMgtC2oVS7ECKvuUsWonuqgBuHGrgll02OpcQuzSW7hQOmJrQEAlRaYjydzvZ2Nen5ZoiB/4lAykM2JjT7cYD2kE9MshG5P3tubHDPnyfS+shmoMSkf0y1MrBR3+dgNyA3rseM/qToZYSAs4zkFBHck3qCPLGhbo7FDTAKwoHbgGnLOU6VnjZJi5QqyqcBkI16YIUICUGzKRt4Knfcv4g0umMqvPqBExSgrNGoZQbP3iyLZbo+i+PUDR8w0cb9cpKJcSHch2btwNUBTL9ewVGIyNVvTNxpdY7mpHMOURP1UG7DJQRSscox4s7D0O4DaBdLpWd/mwxEeDBnQmosVOyjIsLAI92ArccBPyjQZWdSv34kGSM94JGJBXdsmo3ZZscrKrXsGu0DILSQZlfIl2M6sAFb0UhiNqALeh4H002ifUxY9dGUo6kF2DvJJISDYJ7XRwx2Hef7ATP8AC2nhxaXUBIghQFxGrZFQgIkoDwGeq3ZmJJG3Hp5RofJ1I3Kt98Ys1gCQFo7ALvsK2q2s74i5hBn8vOjupALYlhQZJzviQWsQuKFmyNvHFWph0ixx6lImcSyxgMHYEGaQJnuwPmWjW5U4+NuAs5PrdJHGpE0eIXJMgiFFCAkEAAg7s5vcZN4GwA1mi0MkjyNqSrs4YkOgtkijIIJWzihU+T5b34Fil0JiWT5eSi3SI6j2FxWK92BIwKge4sqWFMxvK20uok6XQdS6yMSZGIJUpG42az+gg+P2PkD+W8v08mnn08bM0bsQ57TeaK9qaxoq6kGvXgOHQaJZgRNUiSgAWva4BjArH1ClB7fpokk26Xm2j0rPEqtHUio+1gNiI1vcn7Fj/wDa0ZqjfAXzehzLMsrOz9W2BBBEigAUR2h5BXn1N+vAN+X/AC2o1HzcMhdljCZL9jI1tsao772D6D+84H5NrdKZVjiV1YIAt5VivURf1EHZZAPwu/6b94CnT8gMgEqy4ZUxGFklQ6USGFoQwtfwd99hNHy+IsuGtOSOn3BgXMZK/qYB8i+JIBBsepHDbQc7hjjVHchl7T2sQDXUqwK2TvO+w3O3CPVy8uVS+MzAjq7ZhnKqmoxIYhicQj93gLRIC0A1ui5lFISiSo7qATifI27h7jfyLHpx0eZw5MplQMhIYFgKoBj59ADZPpv7HgE8t0+my1TFx00csxZm7TizkqLv+WD4vY+54UaqbQSO7u72zHO1kGJKrEQRj27CiD4xYmsWoNGnN4CaE8RN1Wa+aBob77MPHvx0nNIGOImiJ9g6k+MvF+wv9t+MzBHocgB1hinRQkOazaOEgCrVs40ByA8X4vgaGDl7RszfMBClsG6h7Tp4rsLdfSwX0JINWbJDXNzaAEAzRWxAAzG5YWo8+oFj34J086uoZGVlPhlIIP8AcbcY0/II1lpl3YBsXA2jjLbhezsUCmrfIAXxo+SaWOOFei7NEwzSzdBhe210SSa9LoUNuAJ0nMYpQTG6sFq6PiwGF+2zA8eRcyhasZo2uqp1N34qj60a4Rck5jookqKSTEhB3pINun2mmUV2R5E+gFmtuF8Z5d9o6q4urqAHJP29MqoBONsMRQ8GhV8BtPmUxzzXD+qxX+fHA0nNYQCTKlC7pgaxq/Hr3Db8j34X8q02mk0zaaLPpoSpDKyEHMk7Mo2DAjYVtXpwq1em5fA7o7S5AiRgDK9MPqBu26IxDbegX8cA157qlMaSBElRlyCv9rKcTZ2OwBy8enCvU88XqH/wOahZVelyYkMhxAxohi7sQa+1j6HhgjhIkGkcTYOyLZEmNNiV+5dkFjzfb6nzSOYa+gflUvGyNhZwzxH1KsNUQs0SS2wWiHvK5dPO0gOkRcFUklFYNkvgECiO0DzvQ2quAOU86hjDmLSOnVObWdi7ySJZB3CjAyM1UFYGvZnFrNd1FV4IymahnX+mu4gFtqO4/F+TV+8z1muWRxDAjIGUKdiWTG2Y3IlENYC+pAsgPkgBPqYk02lm+QRmlVGMccakoSoO3bZxJobD+2/HUXMlGLDl9fYbVRt5VTeIG2Lgb2Oy8cxxfzTXa6MnGKNk7AHVCxtpArDASA0qm8rF7k4hd7opNadLPkoXU0xjAClbK2qjv7qO1tjv6VwAM/OA7oH0YLOqHJlzFdURYklAQQsjsL/3fng7mWuEciw/K5xrgQa7VvMbDAjtCeh/UvvtTo9VrgwDxAxmViWfAMIzI9Cleu1Md6vwKY2eLeaSa0SnorkmxGyY/Y4INyKx7sDQr9/I4BTpub42x0G/aQVTACo1lH3CwQ80iWPBu/LU21euGnWJotISXT9K44C17TS35ctVbBZD5ABGTV8yBP0EN+5TY9NPAEmy9TM7ljX9uDNLJqxp5C6KdQCxQGgpBNqNnNgA13FbI/8AcQr1+uMcEUz6ZZXamcIpOBxyLAYFzQWvGX2jgFuYFQwbRJ24qaQnZpccQAm4XdiwNC7qvNiz8yB/loQSpJOJIJK5gASqMVBbEEk+52F9Jq+ZELcMQJVctlNMXGe3XqlQmtzZBO2wIe8n5wjzpENMsbYFmJ7StM6UBgMiccvTta/3nFvKpNb1Y+rEoUluoxwtVK5KqlXJIVu3cb7n2JnALV5pAjJEdOjyjplmITw0ix3v3HHqA7DYea2vhub6Mqxbl/3Rh3BiiOzMExY3RoUWPhRVnccFQSTh0EcCqCQpnwybC1J3289y/wC3Cz960ZrOZ6tJJAmnMiAtjsRYEalaPii5Yb77exFANqvieJo3WTTMY6dSjdM5qhZT2lqxOJoHyCNt+CuTa/TaiRwsUaukj45BMmKfTdwBvQEoXL1Ens24i851qgD5YuaY3gy3RQKD7FgZNvTFSfO/MOr1UYsaZbClmwiKF5CJCQNyKuNAWve14CjVcy08bSR/IozRPtisePYJJVbeiCMCfFgkVd8cnmmiBWL5NO9zGFxiAOTGEmyQKITwdyuIokqpaw8x1RhkcwsJPphUxqrpXIv7gvc4Hk0B68LZtdrHRC+iRpFVirFLKuEDKQCKBZgD522G5XgC+fPo9M2T6NHYpI9rHHdBbYWxG7ADx+Lrg/Uc4ji0nXEbYLS9NQpP3YUADjsfzwt03xHOzMRCDGkrIcVewodFu6q8XZqHoh8E0GHMOazrKFigLIUVsyG2ZnAIIA/SlsfXxwA+ufSQLAy6VGWVgFKIgxAQuGN1sFWtvcD14C0nMNM7RhNAalYUeklAhqJarClMFJvcbDyCAbo+a6tus7acrjDGyRkHeQ5ZjKt6GJoft5vifxPXdt6ZKLIPJ2DLkx9+0nHcLZHpfAW67mMWlfBdPRdcyyqqKe4+TsSbYkmjRbf7uANTziKQMW0RLFV3ljX9StQbydhdj+k7ea451Wt1zI2elRx0gRGY8gZAZNt5PcQ7H/cbFGrJeZa4ufoMiKxFhVIKZw0SMixpDNePnEV5HAEy69pYUkQiCRjh3kAAh8asggZjZTifuU0fHBvItHNGr/MSdSRnyyDEiqAGK0Ag2+0X+5J4AkZptPE2rKxZ9zbUFAIYAhydzQBv3rzwoflmi6eJ1jkgIAwKs/YTAHrE5DNhuQRsB424B1q+X60yyMmpAQk4IcaUdMKP+VlYe3+4+g4pXk+tq/mR1KHdZIy6TRXhiF84yV4LFthQsUcl0BdUWclnkcIquGIIQsVBAJXDFWBsEdOIXQokaKLS6SRsNRGGUgSISpbFYxSACmHlHqjQ2Gx4AqLl2sxkvVWzAYAqpC0gBohFIJfI2ctiKAquAf4bq1PTGrUOylgtjJsWTqOLTbLIAlRimQ2OVCmPkujnnlwnbOS3ZAFS1LSqa7AWBaw25vBL/PcfItM0vRTUSiRLOwUnZo2JLFDZAAS72UlfTYCTyrVRhv8AxdAsxBLbEvKXAOStVB8BR9F29um02rjKu+rjK5nZ6UMXYiNLC2NyigA3ZPk0OFS8t0MJ31tGMqh3jtAJmIUnCwvV7bP9IF7cefwvQIUk+cZOnimxjWwmoV7YYfaZYwC2wNtvvwGt5oiSL0SwDuM1XMqWwKn07sQSoavRqPnjPR8j1MYCRasRs0QFZZW4KFpAHViNyV9QAy7eOLPiblWleQSTzOnWUxgiqoATHuxJC4w35C+fU3wNNyvlzk1qEGZNqGiIYykSAEMpB/lsVB2AzI3FgHHL+X6pJQ0mqLx25KFR6sxUAhQdlKD91PnI0RzrSTyNH0ZhEq5Zgj7roDf0oZf3IPpwl5VpdDFqBImoJYAKMmBVjMzAAMR3MWQ7A3dH9W4+j+HdFqGzSd2MhfUYWgNTKqMcSmQBCr/38ngHvK9FqY3t5+sjBQQ2xWkNkUNyXo7+h/G/nAXJtHooJQseouQllCdWrKXkCiUHK5/qBx7QKocTgK+lrGQdJl6ePbRxbKyLJ/z20R9vgg2QI9dkbIxysC1BC9UmrA/8pVH7s34oWHkLSgOs7IGNsoaQWVWRADjIoxtlYrW5G/ngnR8jlWQs2qy7iy0ncgOxVC7MAtBbGNbE7WKChoeZMmJZQTGQWBUHMp5BxIFPsNvtu99+HfKF1AD/ADBUkyHDEeE9Afc/nb1/HCQ8jnSg+vYMxdUPeN3XxRlIYqQzLY2/tfFw+H5ViSNdU6YsWpdloljV3mR3b5M3ixRrgPDHzCmpk3DY3iK+zHwv5e/2X8ji6GLW9ZGYjC3DqCtYllx/PaoY+9kjcVwM3Jnjt21rgZp5eQgbIuPdKfuYMR/69wSqnhrFy9103R6zGTDEysWJLHybLZCz4AawPB2HAVc6TVF4xDXT/Xvi1+RR/cDb1BN/kSCHmGSZyRBbHUqrAAGWPbvkS1WdlVbsk1VoPhiRMQdZJipTFELIoVVKlAA3hrLbkm6PoOK9N8NTpTHWM7UgZqZWfBpG3YOPIlIANqteDQxB1zgam4/l8av6mRHjbxYPoWP7hfS+BNBHrOpF1iCgByKkCycvIHt21X54X6H4e1IWItrHzCpkM5GFjMkfze62ZTZsnGvtIA5n+GZgjGTXuyLHTFy+4XqMWbGVVFlkYkAEBKBANAG3N4dYzt0HRUwAANffZu7RvSt9xWQq6PC99Dr7ZnlsZAqI3C4oHVqAwAZsclAY0dsvOzfm/LWmjVVmeJ1N5oSPQqQRluKYmiTRo+nCTUciDOIjrGO4HTZ5CWqNxiwEwBByDFSKYLRBvLgDhppGghXUhpZCcmCkKQbyWitAFKBsHyuxJrhQ7aMW7QTiYKQV6rlhbu+OWeIbNHbzsVsHYcM2vRQIZHM3TZ2y3s5XQ8sdi1Uor0VRsvAH8cgNM+jW3AJICP2ugcksAQRUhFgkE5CzdkO4NToElVokmLRvIRgJCoZAUb1xofMEAHbu23481/M9DIZHZJGkaMrsroWUxhyFIIF4ugJB2yUEituoOY6fUuIflDjKzozqVFYhXNlCGGXbtdmr3WiSoOYo86wpplUCRwxdAPsBW1AH3GrF/oKnw2wE8q0MfUMgglQgBlZpCwORk7QMyBWTGqAGYrxsp0XP9GD80yzxM6iTuLtkHSG+1WZSVDRjGttyBvuT/wAVJGHUadwsVqAuNHGQxUoHgdpYbfbXvQ8XWwvHqTHo4y0URkVSq1JedDYEizELFH9PnbgLOdxaKGRnmRw8o6rOgkO0RjO5TwAVQ47XuaNtwCr6IEpFHO+DMrlZH2aJ42o29sQZgVoH9Q28cH6rmSSx6hxpVleCEuuQVhJYY4K1FqbAHxurId74En51AMq0YYKHfYRjLpiyVuiSwNr7gqfB2C+bmWhkSOI9VlTDHES2M4yFsr3bxsQb99/TgCablzy2qTSSPhkQ8q9raeZkY2wB+kki7WRe43vg/Rc007yxw/KBWdmUdsZA6ag3sboiwKH6d62HFMnNNMrlDol2fBqRL7ZOkpqtxsGH+2j+wDSvy5QGEchbuZBlKMngyY0xaiysWWyfP4HDN5NNoWV+myK0TEtkz0FaNQuNn/zAAfRUA8AALY+bwsKbQIxJ2pY8SDKIF3bzsFYnwAB/tu+bn6N9+izRU7BiGNgvkoBXHbpoAAfvZF9QeAYcrm0jTlorWUF0o5qGtiGxU0rDKA7gfpJH3EmcUaHnK9eKOLTdMSOUZsQuwjeUVj/SwwYH7WavJ3nALm5dpJHPVlKSuBGdkAppKRbZCCxMeyknc37cH8qGginaWKQF5AK3yFSyVaGvDOADR/Qvtwu1mr0wkEc8VtGUcuHdcR1Jwp7B9ylHoXZsV42thk0AxqKcd6ou8v320ovu982JOxryRXAG86TR6oqWn3CFQI2UkrJaeoJF0QCtE0fIHAUXIeXsyYzhi7riLibJkQqAOw/pJah+SNr44h1ugYIRHLk4Sx1H7QEMllg5BwSf0s9wAvHts0smhjmSVDqFZO0L3uDYMVG8iaEB2uuy/wBw61nw/o9P987qyiN6+mzERLilLhZ2T0F7NjW/D7nxhaILO4RHYG2C12fW3zBUCozdjxfg8e67kkE7CR0tqADK7KaGVbqR4EjgH0DtX3G0/M+c6Ofsm6hRLogutsySoVpCGsxhyL2III3A4Bb/AAvl8cbZas4qFQsxj7qjVhienuSpDApuPCldxxbqOS8vXNm1X2HJgDFYMCb9qpdqtkgC/TwAAZB8jMcFE56lg0ZwO9ChJ37TixUk0VoeKXgrm/JNIq9SZJCAxUU8rbznpkBQxoMXogbb3t54ACH4Q07BlilWT7I3ZljZljV3lKBkVSpbqY919oG17ltrtbpNRBJD8zDhIhjOMiGg6ldrseDtYPC/Qc20cBYQKxMg6hFNkxMhBY51uWZnNmzud+Aj/DcWVxNdSFlzmbaJURmsMR4RKIPmq3vgGXK9Ro9I0wGpUszO7jt+8ZSOAEUW4U2V3bEKa9TVzHSaKaUytq1HfliHirqRLRNspbJVIvfah43sbWyaAghlnLfUATOVTaqVZR3gD7ig8C+PdS2g7mdJbGV98jEdQCxYau72urA/FgQeVpDpIYtKeohto7CuGBGXigrAizfk2Td78MuTayd8w6IgRVApT95UErWX6TttsbFHzxTy8xBdOsKlY0lMajIt2iF6qySFxrbgnncTyBBG4HeQyiUxFji1AOoJsGmK1uAb8UQT8v1mtjFfLIcipNJ06+nHlYW92kLKPONWSQOCedajWJO5gVniWIMq0hDS99qbpsaCb5Dc7XvXr6HmFtWojA78dhVEpgGBjJJC57hh3Y7EXxw8WuUnLURAEgDdR+trxuLzjgq2Wpi15bcB0eZ61T/9Pnuw8YDYAKQSxrNrO90Nv3YNrZugzLGTKpC1gVBsjuAYg1i1kXsQRuRwrXTa9gD8zCWYAqQdvte6AQWN0IyLVud/VtymPUJn8xIjEt2Y+grxWK/v6+3pZBVqOYa4qahxsoQQtlRRLAgsQdwFse5/sfzPU6pZKijVo+w2NiSXCstk0AFtsq8bDffhSmh5gAwfVRAFbIy7rLAsQ5j7ARYUBe2/XYi06DmAjKJqIxJj2lmzo9Qkk5RFj2EKPAHsfPAMuT6zUuxWaJUAWw1EWb/psgbGqysY34YUANfzHYGCIbLbUTTdTBjiH3UKOoO4Eh1FAqwPraDmADYTJZaRhk9gBjI6LRi+1SyKfXFdiPHB3IPmSJTqcgTIcB2UE9KxFk775f2vyQo03MtX1Qsmn+nZBZR4/pO7fijt67XXGi4x+m5VzFExGpTLAAszdS2URLkLi2vFyR43G1ktw55wk7GMQSrGciXBIBZBsatH9SN9vI/bgG/E4z3Kk1gcGeaAocBQ7jkqsJFUhUq2AazlQVhQuxOABHNXjdY1hDL1GtyrH7tQU2IFClLHc361Q3q0XPZsAz6aOyE7FVwQSoeyWXZUzAJxJGDGr7R2+v1UYk6UWUcfVfYBmZ8pGxrK6Jx2ADefGxNic215TJYI3JUV2sgyyUHyxJAXLwO6gQaIsKp/iBw1DSAFaJDhv6pKOQTbFUz8H+YPHr2OfqO35Q1dAgAA05Apay9LXbcgigasrR8x1p1EaSadRExlycCigUkR/rYHILkTt9yitmIv5XrNSZAksfbTW+OO+TVXcRVYivJu+A55nzP5Voo0hyiETEhQewJ01VVABBsMdttlNX44Am56gjMnyZYYZGgPLMYytsoFk5+TVUTWXF8fNdabvThaLfpJ7aBU0G8izY3yKkAixxW3OtZkiGBFZ2pRuSRagmyQBSkyeu3bswNgfzTVx6cxt0AWY0CFAK3inmvQEE/7Fc/prhSfiu0In097ZdjZChFHN5YDe3IWrJwc7YkcMJOYakRwMELOyDqDpsAGLxKSVFkUrSNV71/gVuba0AsunyyDMFYMMSIwQgpSSS+xY0NzXiiBLzxLo2mj08QwDIEYKFGLGKrAPbsaryPa+AjzuPLH5NTWeTdoC1ihJsWAerv5pQ5PjclubaxSV+Xy3Azxat2YEgAXioC+5Od/pbgnm3MdTG4WOAOMAWYBmpro7ACwBvV2f7cAuj57Gzoo0gQtLhbhP61UkFb77fMD1UFrri7nXMl08ojXShlCBicQAcsxSmqpekpcnwpTzxV/FNbWJhYEknIxl8V6slrSkA1GqV4LZe4o2PzbWrlWmyrKjRJagCNhQGZyUf04Am+oKC/XBJIou06dWkOWQC0OjJuaNFaAHkbbbcAJyKOTqrHqxagB8CewmF1UkiSx2TBwb/SpuxfBmtkMsR+aXpxrK4J3FxdJ+71PrR/INWKujRroVieCOVxHKiRUMiACixpiStWUMY9f0e+4G6TRrpi8supLxyBUVWvEeFAXc+f/AJY+uy/R8ljxQrq8/sIMm5x7XUVkNyVLWRZsj0HHcR0PQghExCRMoi8g92QRRa7igQNvAHFWg5RopiYomlb6asTRooUbTL3MtWFjIHr678AwHJkMWlgWcA6bEAqACcFw2APaaB9wPY8Dy8vQ6ddIdZbqWPUJJYHdfOdqQziu70oD285a2ghkEkb7tnRxJF7k92OxCxEbmyAPNi6YOW6VYg80rYahmxJBQ3Ji53XcMDEGDWMcdqA4DjmHw0syunzguXqrvbEiQLa/zASAAGCrQujVWGcc05UJ5CyyhXCBGoWQMg48MCAd9vXb2IKlYuXxyCS+mwaSRQQVs5JPIcay2dRd+CcRsQOCPnNLHLPqF6peUBXOLUcUZgoDAWyhG28gk3QugoTk6d1a+7yJBkY7NIJN/q+lBdq228bcdLyNLAGst8nq3YksZA9EdXcBVMZUVsTVcc8i5RpWjEAd2ZFK1QXEJIQfFjIN5slqO/kcUHT8vLo4mxRZASjBxblhOoBaiKY9QjfYgmlO4MdBy5NLL1JNZI9hY1R2vuY7NV7szFzdAUQPCA8LuZcnUF401QWQltmzCrkyTkZBqUhIdhscb8DgxhoSZNd1GGEis7U3a5SJfsK5dyCHwPAUisiT1qo9LIJ9TUwETFmxUjJxGq9RRVscMQD47V224DrQfD8fVWRZUYowkCgAhT9UEjuJBIlxy9kXzxOJyqbRBwigrJ1Ciq4a8ofo5D0qhWQ2NgHfbicBw2k1Lio5AsXUYGnwahqLejgWsoGGzDyBQ3PDzm0UjR1C2Lh0a7q1DqzLZVvKhh49fTzwqfkczFiuoeIEvSgsat2YHtcL6hqq72JK2vAC6HN5Fj5ihlbsNOSy4lnxAEtiraxV0KsbngCdJodeFjVplKqFB3tmIClrfEH7gQPdSbskEPeVpKsSiZspK7iAPP4oAV/YcBc05dK8ma6gxxiMqydw/q7rDij9u/oAf6tqOWRLHP3apJHKCMIXttgPQtuex2Jqzvd1wFGmTXMoOdC2sMFDkWgqsAAa6pXar6d2L4rGm5gK7ku7NNYsq2YUGrGRXANdUPAvizT8jmDMRqrbJQxGV0ubY3nYH1cgp2AoEHzx6eUyhgnzr5WDiWIJSj57iSSQ9kVtXqgPAelOYW3chFbUFFG3ugfQAJjZ9Wu9qd8vdyi9RcX3Dbg2QayFejVkPwRYB24W8x5bM2njijlcSA90mbWO1gW8gsAxBxOxoXwFzDl2oUGtUQWOylyNjIRQJPnF4xdghkABHUPAeyaXXlSDKt2QpQgbBHAY9tAs+BqiFsjeg3DPkkc69QTmxkxQ2CQpdyFseyYf3vgCLkupoH5l1JG65s4B6ar9xotT5nYLeQOxUcF8l0E8TuZJuorBQAxYlSq0av32J9zZ28AFvMoNerzvEckyLxJYPiEKBXmjJkcfGy+54508WvKlleiyD+aFsMGG4QAVaXQ23okA3Wv4rVwcgCDRo/g0DR/sQf78Akmjl6J+YRZWLy4oNlwxkCgkD1TYmjRat6spp+daZVLPAhFGVWSUMCY44XJLHEghsEBAb7QTXgbKSIMVP9Jsf4K/9m47JA/Fb8BiNZzfRQ3lpZB0+oRQXYQAnZupQtZAVsi1kH+7HtPiDTwv9PTMrqFR8nQYqzoKyzKsEMrE70MSL342bOB58e/HSEHcevAZnQafSdKVxp2jSHIMCLIKqQ2IVm3AJHb/AG4t5XNDqR0xD9KIBhmwYh8nWqBa6KXlZB2qxvw802nWNQiKFUeAPzv/ANzfFoUDwOAyWlmjkzz0XaOogZGDhlV3jkXuwP6FJG4OS1ZQ41avmWkGRfSOcQWO0d31HhI/mWWsyG/BW99wONpxOAykfN4onLLpnSuoH+0NYlQFsQxBU9bqlrvGjRsgBLzrQo2I09MknTP8sYEFIrP1PtuksX9pB2HGuiWOOkXBLJIUULJtjQ9T5J/ueOp9SiVm6rkaGRAs+wvyeAzXIddotSJIFiRf5btGcSHOK4MoBJOPSABoEYDxWwkvPtLHNNoYtKthkidTgiOpiZqUWS2KxhMQvll9+NgGQtVqXUA1tahrANeRdEX60eCOAyXLOZaVpIxFphmxUFkEdKXV5ryLAsoxLWoN5AgHepxpknUsVDKWX7gCCRfix6XXE4C/hBqvhmN2Zi8guXrAAJSt0ujtaEgVi3m8lBvyC/4nALOV8oSCHoqWdN/5hysHyCSN79b82b4H1nw9G8mebqCMSihMSDdiih8k5Xd2B6WC74nAZp/hCMlfqzDEEAAp4aJYCPs8YoDX9W/44b6PQrGANiRspxUEKBQUUPAs1+/B3E4BBrfhtJJXlMkgLlSVGNdoAHlb2qxZ8k+RQF/NuRx6h43ewUFbBTal45CDkp2JiUbVsT/ZxxOAV8o5SNPlTyPlVl2yJoVftf7AbAD0HAEXwrGvh5PBr7e04qtqMaBtQ/jdtz7caPicAq0/J0TTnTKXCFWTLLuAIrZvNqKAPnYWSd+BIvhiNWDCSUVdAMKFokfitxUYNGxuR4AA0HE4DlFoADwOKpoFYMCB3LifyN9v+p/zxfxOA8A494nE4CcTicTgJxOJxOAE1OkVyrbhlNhh58EVuKIpjsf38gcUazlSSSrMSwZUaPat0YqxG4NbxruKP/SmXE4DPx/CsIolpWK40zMCe1mcenu5/wAD+4kfwLplRUVpRhjRtbJVGjBJK7kZs1/1G+NXxOAB0/L0SWSYXnKFDe1LlXp/uP8A/DicHcTgP//Z;fontStyle=1" vertex="1" parent="1">
          <mxGeometry x="720" y="260" width="160" height="180" as="geometry" />
        </mxCell>
        <mxCell id="fpoQU8l-y1JR6lcllZNJ-32" value="P1" style="rounded=1;whiteSpace=wrap;html=1;fontStyle=1" vertex="1" parent="1">
          <mxGeometry x="930" y="280" width="120" height="40" as="geometry" />
        </mxCell>
        <mxCell id="fpoQU8l-y1JR6lcllZNJ-33" value="P2" style="rounded=1;whiteSpace=wrap;html=1;fontStyle=1" vertex="1" parent="1">
          <mxGeometry x="930" y="330" width="120" height="40" as="geometry" />
        </mxCell>
        <mxCell id="fpoQU8l-y1JR6lcllZNJ-44" value="" style="edgeStyle=orthogonalEdgeStyle;rounded=0;orthogonalLoop=1;jettySize=auto;html=1;dashed=1;endArrow=none;endFill=0;" edge="1" parent="1" source="fpoQU8l-y1JR6lcllZNJ-34" target="fpoQU8l-y1JR6lcllZNJ-33">
          <mxGeometry relative="1" as="geometry" />
        </mxCell>
        <mxCell id="fpoQU8l-y1JR6lcllZNJ-34" value="Pn" style="rounded=1;whiteSpace=wrap;html=1;fontStyle=1" vertex="1" parent="1">
          <mxGeometry x="930" y="410" width="120" height="40" as="geometry" />
        </mxCell>
        <mxCell id="fpoQU8l-y1JR6lcllZNJ-47" style="edgeStyle=orthogonalEdgeStyle;rounded=0;orthogonalLoop=1;jettySize=auto;html=1;exitX=1;exitY=0.5;exitDx=0;exitDy=0;entryX=0;entryY=0.5;entryDx=0;entryDy=0;endArrow=classic;endFill=1;" edge="1" parent="1" source="fpoQU8l-y1JR6lcllZNJ-42" target="fpoQU8l-y1JR6lcllZNJ-46">
          <mxGeometry relative="1" as="geometry" />
        </mxCell>
        <mxCell id="fpoQU8l-y1JR6lcllZNJ-42" value="" style="verticalLabelPosition=bottom;verticalAlign=top;html=1;shape=process;whiteSpace=wrap;rounded=1;size=0.14;arcSize=6;" vertex="1" parent="1">
          <mxGeometry x="-420" y="370" width="130" height="70" as="geometry" />
        </mxCell>
        <mxCell id="fpoQU8l-y1JR6lcllZNJ-45" value="Algorithm to Select Unique Articles per Duplicate Group&amp;nbsp;" style="text;html=1;strokeColor=none;fillColor=none;align=center;verticalAlign=middle;whiteSpace=wrap;rounded=0;dashed=1;" vertex="1" parent="1">
          <mxGeometry x="-400" y="370" width="95" height="70" as="geometry" />
        </mxCell>
        <mxCell id="fpoQU8l-y1JR6lcllZNJ-48" style="edgeStyle=orthogonalEdgeStyle;rounded=0;orthogonalLoop=1;jettySize=auto;html=1;exitX=1;exitY=0.5;exitDx=0;exitDy=0;endArrow=classic;endFill=1;entryX=0;entryY=0.5;entryDx=0;entryDy=0;entryPerimeter=0;" edge="1" parent="1" source="fpoQU8l-y1JR6lcllZNJ-46" target="fpoQU8l-y1JR6lcllZNJ-59">
          <mxGeometry relative="1" as="geometry">
            <mxPoint x="50" y="405" as="targetPoint" />
          </mxGeometry>
        </mxCell>
        <mxCell id="fpoQU8l-y1JR6lcllZNJ-49" value="yes" style="edgeLabel;html=1;align=center;verticalAlign=middle;resizable=0;points=[];" vertex="1" connectable="0" parent="fpoQU8l-y1JR6lcllZNJ-48">
          <mxGeometry x="-0.2769" y="4" relative="1" as="geometry">
            <mxPoint x="3" y="4" as="offset" />
          </mxGeometry>
        </mxCell>
        <mxCell id="fpoQU8l-y1JR6lcllZNJ-50" style="edgeStyle=orthogonalEdgeStyle;rounded=0;orthogonalLoop=1;jettySize=auto;html=1;exitX=0.5;exitY=1;exitDx=0;exitDy=0;endArrow=classic;endFill=1;entryX=0.5;entryY=0;entryDx=0;entryDy=0;" edge="1" parent="1" source="fpoQU8l-y1JR6lcllZNJ-46" target="fpoQU8l-y1JR6lcllZNJ-52">
          <mxGeometry relative="1" as="geometry">
            <mxPoint x="-150" y="560" as="targetPoint" />
          </mxGeometry>
        </mxCell>
        <mxCell id="fpoQU8l-y1JR6lcllZNJ-51" value="No" style="edgeLabel;html=1;align=center;verticalAlign=middle;resizable=0;points=[];" vertex="1" connectable="0" parent="fpoQU8l-y1JR6lcllZNJ-50">
          <mxGeometry x="-0.1556" y="-1" relative="1" as="geometry">
            <mxPoint as="offset" />
          </mxGeometry>
        </mxCell>
        <mxCell id="fpoQU8l-y1JR6lcllZNJ-46" value="&lt;br&gt;&lt;br&gt;Does multiple unique content exist in this Duplicate id &lt;br&gt;Group?" style="rhombus;whiteSpace=wrap;html=1;" vertex="1" parent="1">
          <mxGeometry x="-220" y="340" width="140" height="130" as="geometry" />
        </mxCell>
        <mxCell id="fpoQU8l-y1JR6lcllZNJ-52" value="Keep Raw Content of all duplicate articles&amp;nbsp;" style="rounded=1;whiteSpace=wrap;html=1;absoluteArcSize=1;arcSize=14;strokeWidth=2;fillColor=#f8cecc;strokeColor=#b85450;" vertex="1" parent="1">
          <mxGeometry x="-215" y="530" width="130" height="50" as="geometry" />
        </mxCell>
        <mxCell id="fpoQU8l-y1JR6lcllZNJ-57" value="" style="shape=parallelogram;html=1;strokeWidth=2;perimeter=parallelogramPerimeter;whiteSpace=wrap;rounded=1;arcSize=12;size=0.23;" vertex="1" parent="1">
          <mxGeometry x="-600" y="700" width="100" height="60" as="geometry" />
        </mxCell>
        <mxCell id="fpoQU8l-y1JR6lcllZNJ-58" value="" style="strokeWidth=2;html=1;shape=mxgraph.flowchart.document2;whiteSpace=wrap;size=0.25;" vertex="1" parent="1">
          <mxGeometry x="-480" y="600" width="70" height="60" as="geometry" />
        </mxCell>
        <mxCell id="fpoQU8l-y1JR6lcllZNJ-66" style="edgeStyle=orthogonalEdgeStyle;rounded=0;orthogonalLoop=1;jettySize=auto;html=1;exitX=1;exitY=0.5;exitDx=0;exitDy=0;exitPerimeter=0;entryX=-0.006;entryY=0.733;entryDx=0;entryDy=0;entryPerimeter=0;endArrow=classic;endFill=1;" edge="1" parent="1" source="fpoQU8l-y1JR6lcllZNJ-59" target="fpoQU8l-y1JR6lcllZNJ-7">
          <mxGeometry relative="1" as="geometry" />
        </mxCell>
        <mxCell id="fpoQU8l-y1JR6lcllZNJ-59" value="Select all unique content per &lt;br&gt;Duplicate Group" style="strokeWidth=2;html=1;shape=mxgraph.flowchart.multi-document;whiteSpace=wrap;" vertex="1" parent="1">
          <mxGeometry y="357.5" width="130" height="95" as="geometry" />
        </mxCell>
        <mxCell id="fpoQU8l-y1JR6lcllZNJ-65" style="edgeStyle=orthogonalEdgeStyle;rounded=0;orthogonalLoop=1;jettySize=auto;html=1;exitX=1;exitY=0.5;exitDx=0;exitDy=0;entryX=0;entryY=0.5;entryDx=0;entryDy=0;endArrow=classic;endFill=1;" edge="1" parent="1" source="fpoQU8l-y1JR6lcllZNJ-63" target="fpoQU8l-y1JR6lcllZNJ-42">
          <mxGeometry relative="1" as="geometry">
            <Array as="points">
              <mxPoint x="-450" y="460" />
              <mxPoint x="-450" y="405" />
            </Array>
          </mxGeometry>
        </mxCell>
        <mxCell id="fpoQU8l-y1JR6lcllZNJ-63" value="&lt;span style=&quot;&quot;&gt;External&lt;/span&gt;&lt;br style=&quot;&quot;&gt;&lt;span style=&quot;&quot;&gt;Data Source&lt;/span&gt;" style="shape=parallelogram;html=1;strokeWidth=2;perimeter=parallelogramPerimeter;whiteSpace=wrap;rounded=1;arcSize=12;size=0.23;" vertex="1" parent="1">
          <mxGeometry x="-570" y="430" width="100" height="60" as="geometry" />
        </mxCell>
      </root>
    </mxGraphModel>
  </diagram>
</mxfile>
